<svg xmlns="http://www.w3.org/2000/svg" width="124.004" height="119.998" viewBox="0 0 124.004 119.998"><defs><style>.a,.d{opacity:0.3;}.b{fill:#97c1ff;}.c{fill:#eef6ff;}.d,.g{fill:#5cbeff;}.e{fill:#fff;}.f{fill:#6d6daa;}</style></defs><g transform="translate(-1.999 -5.012)"><g class="a"><path class="b" d="M125.693,49.663a29.7,29.7,0,0,0-22.945-25.045,19.136,19.136,0,0,1-10.669-6.548,36.508,36.508,0,0,0-8.844-7.738A35.62,35.62,0,0,0,36.871,18.17a37.329,37.329,0,0,0-7.5,15.271,20.928,20.928,0,0,1-10.62,13.674C4.933,54.473-1.992,73.573,10.606,91.5a16.261,16.261,0,0,0,6.2,4.909,20.4,20.4,0,0,1,9.778,10.876,28,28,0,0,0,17.893,16.566,27.2,27.2,0,0,0,23.7-3.929A19.188,19.188,0,0,1,84.4,116.977a27.692,27.692,0,0,0,24.258-4.654,29.364,29.364,0,0,0,10.911-29.138,20.5,20.5,0,0,1,2.449-14.132,30.45,30.45,0,0,0,3.673-19.39Z"/><path class="c" d="M50.122,19a9.034,9.034,0,0,0-17.433-4.155A4.82,4.82,0,0,0,24.875,18.6c0,.139.009.275.021.411A7.192,7.192,0,0,0,27.285,33H47.77a7.193,7.193,0,0,0,2.352-14Z"/><path class="d" d="M47.77,30.6H27.285a7.217,7.217,0,0,1-7.124-6.018A7.19,7.19,0,0,0,27.285,33H47.77a7.191,7.191,0,0,0,7.124-8.419A7.217,7.217,0,0,1,47.77,30.6Z"/><path class="e" d="M24.9,21.411c-.012-.136-.021-.272-.021-.411a4.82,4.82,0,0,1,7.813-3.758A9.026,9.026,0,0,1,50.122,21.4a7.216,7.216,0,0,1,4.773,5.584A7.125,7.125,0,0,0,50.122,19a9.034,9.034,0,0,0-17.433-4.155A4.82,4.82,0,0,0,24.875,18.6c0,.139.009.275.021.411a7.124,7.124,0,0,0-4.735,7.971A7.215,7.215,0,0,1,24.9,21.411Z"/><path class="f" d="M47.77,34H27.285a8.191,8.191,0,0,1-3.4-15.659,5.825,5.825,0,0,1,8.366-4.954A10.038,10.038,0,0,1,51.18,18c0,.114,0,.227-.006.34A8.192,8.192,0,0,1,47.77,34ZM29.7,14.8a3.815,3.815,0,0,0-3.82,3.8c0,.11.008.217.017.325a1,1,0,0,1-.666,1.03A6.192,6.192,0,0,0,27.285,32H47.77A6.193,6.193,0,0,0,49.8,19.943a1,1,0,0,1-.67-1.056,8.034,8.034,0,0,0-15.5-3.693,1,1,0,0,1-1.556.432A3.79,3.79,0,0,0,29.7,14.8Z"/><path class="c" d="M47.77,18.6a7.247,7.247,0,0,1,2.371.4"/><path class="f" d="M50.141,20a1,1,0,0,1-.327-.055A6.235,6.235,0,0,0,47.77,19.6a1,1,0,1,1,0-2,8.245,8.245,0,0,1,2.7.451A1,1,0,0,1,50.141,20Z"/><path class="c" d="M24.895,19a7.246,7.246,0,0,1,2.39-.4"/><path class="f" d="M24.9,20a1,1,0,0,1-.33-1.945,8.233,8.233,0,0,1,2.72-.459,1,1,0,0,1,0,2,6.24,6.24,0,0,0-2.061.347.985.985,0,0,1-.33.057Z"/><path class="c" d="M32.657,14.813a4.826,4.826,0,0,1,1.311,1.563"/><path class="f" d="M33.969,17.376a1,1,0,0,1-.886-.535A3.84,3.84,0,0,0,32.043,15.6a1,1,0,1,1,1.227-1.58,5.864,5.864,0,0,1,1.583,1.888,1,1,0,0,1-.884,1.465Z"/><path class="c" d="M9.1,67.5A11.292,11.292,0,0,1,30.889,62.3,6.025,6.025,0,0,1,40.656,67c0,.173-.012.344-.026.514A8.99,8.99,0,0,1,37.644,85H12.038A8.991,8.991,0,0,1,9.1,67.5Z"/><path class="d" d="M12.038,82H37.644a9.021,9.021,0,0,0,8.905-7.522A8.988,8.988,0,0,1,37.644,85H12.038A8.989,8.989,0,0,1,3.132,74.477,9.021,9.021,0,0,0,12.037,82Z"/><path class="e" d="M40.63,70.514c.014-.17.026-.34.026-.514a6.025,6.025,0,0,0-9.767-4.7A11.282,11.282,0,0,0,9.1,70.5a9.019,9.019,0,0,0-5.966,6.98A8.906,8.906,0,0,1,9.1,67.5,11.292,11.292,0,0,1,30.889,62.3,6.025,6.025,0,0,1,40.656,67c0,.173-.012.344-.026.514a8.9,8.9,0,0,1,5.919,9.964A9.019,9.019,0,0,0,40.63,70.514Z"/><path class="f" d="M37.644,86H12.038a9.99,9.99,0,0,1-4-19.165c-.011-.2-.016-.393-.016-.584a12.3,12.3,0,0,1,23.308-5.43,7.029,7.029,0,0,1,10.322,6.021A9.989,9.989,0,0,1,37.644,86ZM20.322,56A10.215,10.215,0,0,0,10.092,67.386a1,1,0,0,1-.67,1.056A7.991,7.991,0,0,0,12.038,84H37.644A7.99,7.99,0,0,0,40.3,68.458a1,1,0,0,1-.666-1.03c.012-.142.022-.283.022-.428a5.025,5.025,0,0,0-8.146-3.914,1,1,0,0,1-1.556-.431A10.341,10.341,0,0,0,20.322,56Z"/><path class="c" d="M12.038,67a9.058,9.058,0,0,0-2.964.5"/><path class="f" d="M9.073,68.5a1,1,0,0,1-.327-1.946A10.061,10.061,0,0,1,12.038,66a1,1,0,0,1,0,2,8.052,8.052,0,0,0-2.638.44,1.006,1.006,0,0,1-.327.055Z"/><path class="c" d="M40.631,67.5a9.058,9.058,0,0,0-2.988-.5"/><path class="f" d="M40.631,68.5a1,1,0,0,1-.33-.056A8.039,8.039,0,0,0,37.644,68a1,1,0,1,1,0-2,10.048,10.048,0,0,1,3.317.559,1,1,0,0,1-.33,1.945Z"/><path class="c" d="M30.929,62.266a6.032,6.032,0,0,0-1.639,1.954"/><path class="f" d="M29.29,65.22a1,1,0,0,1-.884-1.465,7.078,7.078,0,0,1,1.911-2.279,1,1,0,0,1,1.227,1.58,5.051,5.051,0,0,0-1.367,1.629,1,1,0,0,1-.886.535Z"/><path class="c" d="M81.956,13.665a6.022,6.022,0,0,1,11.622-2.77A3.213,3.213,0,0,1,98.787,13.4c0,.092-.006.183-.014.274A4.795,4.795,0,0,1,97.18,23H83.523a4.8,4.8,0,0,1-1.568-9.335Z"/><path class="e" d="M81.956,15.665a6.022,6.022,0,0,1,11.622-2.77A3.213,3.213,0,0,1,98.787,15.4c0,.093-.006.183-.014.274a4.806,4.806,0,0,1,3.113,3.544,4.764,4.764,0,0,0-3.113-5.544c.008-.091.014-.181.014-.274a3.213,3.213,0,0,0-5.209-2.505,6.017,6.017,0,0,0-11.622,2.77,4.765,4.765,0,0,0-3.139,5.553,4.806,4.806,0,0,1,3.139-3.553Z"/><path class="d" d="M97.18,21H83.523a4.814,4.814,0,0,1-4.706-3.782,4.751,4.751,0,0,0-.114.982,4.81,4.81,0,0,0,4.82,4.8H97.18A4.81,4.81,0,0,0,102,18.2a4.751,4.751,0,0,0-.114-.982A4.814,4.814,0,0,1,97.18,21Z"/><path class="f" d="M97.18,24H83.523a5.794,5.794,0,0,1-2.607-10.982V13a7.025,7.025,0,0,1,13.1-3.5,4.212,4.212,0,0,1,5.751,3.511A5.794,5.794,0,0,1,97.18,24ZM87.942,8a5.019,5.019,0,0,0-5.025,5,5.09,5.09,0,0,0,.033.556,1,1,0,0,1-.669,1.055A3.8,3.8,0,0,0,83.523,22H97.18a3.795,3.795,0,0,0,1.263-7.382,1,1,0,0,1-.667-1.025c0-.063.01-.127.01-.193A2.214,2.214,0,0,0,94.2,11.679a.987.987,0,0,1-.888.179,1,1,0,0,1-.668-.611A5.046,5.046,0,0,0,87.942,8Z"/><path class="c" d="M83.523,13.4a4.831,4.831,0,0,0-1.581.264"/><path class="f" d="M81.942,14.665a1,1,0,0,1-.326-1.946,5.843,5.843,0,0,1,1.907-.319,1,1,0,0,1,0,2,3.835,3.835,0,0,0-1.255.209,1,1,0,0,1-.326.055Z"/><path class="c" d="M98.773,13.668A4.831,4.831,0,0,0,97.18,13.4"/><path class="f" d="M98.773,14.669a.994.994,0,0,1-.329-.056A3.835,3.835,0,0,0,97.18,14.4a1,1,0,1,1,0-2,5.82,5.82,0,0,1,1.922.324,1,1,0,0,1-.329,1.945Z"/><path class="c" d="M93.6,10.875a3.217,3.217,0,0,0-.874,1.042"/><path class="f" d="M92.724,12.917a1,1,0,0,1-.884-1.465,4.247,4.247,0,0,1,1.146-1.367,1,1,0,0,1,1.227,1.579,2.233,2.233,0,0,0-.6.718,1,1,0,0,1-.886.535Z"/><path class="e" d="M122.51,49a.99.99,0,0,1-.92-1.38.93.93,0,0,1,.21-.33,1.537,1.537,0,0,1,.15-.12.759.759,0,0,1,.18-.09.635.635,0,0,1,.18-.06.957.957,0,0,1,.58.06,1.156,1.156,0,0,1,.33.21,1.019,1.019,0,0,1,.21.33.991.991,0,0,1,.08.38,1.194,1.194,0,0,1-.02.19.592.592,0,0,1-.06.19.552.552,0,0,1-.09.17c-.04.06-.08.11-.12.16a1.165,1.165,0,0,1-.33.21,1,1,0,0,1-.38.08Z"/><path class="e" d="M119.863,53h-7.932a1,1,0,1,1,0-2h7.932a1,1,0,0,1,0,2Z"/><path class="e" d="M117.218,49h-9.252a1,1,0,0,1,0-2h9.252a1,1,0,0,1,0,2Z"/><path class="e" d="M106.643,53H104a1,1,0,0,1,0-2h2.643a1,1,0,0,1,0,2Z"/><path class="e" d="M117.219,57H106.643a1,1,0,0,1,0-2h10.576a1,1,0,0,1,0,2Z"/><path class="e" d="M44,121a1.052,1.052,0,0,1-.71-.29,1.155,1.155,0,0,1-.21-.33A1,1,0,0,1,43,120a1.318,1.318,0,0,1,.02-.2.635.635,0,0,1,.06-.18.765.765,0,0,1,.09-.18l.12-.15a1.153,1.153,0,0,1,.33-.21.959.959,0,0,1,.58-.06.634.634,0,0,1,.18.06.759.759,0,0,1,.18.09l.15.12a1.474,1.474,0,0,1,.12.15,1.619,1.619,0,0,1,.1.18,1.242,1.242,0,0,1,.05.18.679.679,0,0,1,.02.2.981.981,0,0,1-.07.38,1.467,1.467,0,0,1-.22.33l-.15.12a.759.759,0,0,1-.18.09.653.653,0,0,1-.18.06,1.386,1.386,0,0,1-.2.02Z"/><path class="e" d="M45.25,117h-2.5a1,1,0,0,1,0-2h2.5a1,1,0,0,1,0,2Z"/><path class="e" d="M49,113H36.5a1,1,0,0,1,0-2H49a1,1,0,0,1,0,2Z"/><path class="e" d="M37.75,117h-5a1,1,0,1,1,0-2h5a1,1,0,0,1,0,2Z"/><path class="e" d="M39,121H29a1,1,0,1,1,0-2H39a1,1,0,0,1,0,2Z"/><path class="c" d="M84.651,87.208A8.569,8.569,0,0,1,97.4,77.714a11.257,11.257,0,0,1,20.178,5.635A8.045,8.045,0,0,1,114.952,99H84.9a5.9,5.9,0,1,1-.251-11.793Z"/><path class="e" d="M84.651,90.428a8.182,8.182,0,0,1-.217-3.189,5.87,5.87,0,0,0-5.2,7.509,5.885,5.885,0,0,1,5.413-4.319Z"/><path class="e" d="M92.951,79.683a8.529,8.529,0,0,1,4.443,1.249,11.257,11.257,0,0,1,20.18,5.636,8.049,8.049,0,0,1,5.255,6.034,8.042,8.042,0,0,0-5.255-9.254A11.257,11.257,0,0,0,97.4,77.714a8.572,8.572,0,0,0-13.029,7.335,8.284,8.284,0,0,0,.165,1.553A8.585,8.585,0,0,1,92.951,79.683Z"/><path class="g" d="M84.651,83.988c-.051-.2-.082-.4-.12-.606-.041.209-.072.422-.1.637C84.508,84.013,84.577,83.992,84.651,83.988Z"/><path class="d" d="M114.952,95.78H84.9a5.9,5.9,0,0,1-5.664-4.253A5.833,5.833,0,0,0,79,93.1,5.9,5.9,0,0,0,84.9,99h30.05a7.974,7.974,0,0,0,7.877-9.617,8.05,8.05,0,0,1-7.877,6.4Z"/><path class="f" d="M114.952,100H84.9A6.9,6.9,0,0,1,83.46,86.353a9.249,9.249,0,0,1-.094-1.3,9.571,9.571,0,0,1,13.779-8.61,12.257,12.257,0,0,1,21.345,6.191A9.045,9.045,0,0,1,114.952,100Zm-22-22.537a7.555,7.555,0,0,0-7.332,9.493,1,1,0,0,1-.926,1.25A4.9,4.9,0,1,0,84.9,98h30.05a7.045,7.045,0,0,0,2.3-13.706,1,1,0,0,1-.668-.843,10.257,10.257,0,0,0-18.387-5.132,1,1,0,0,1-1.315.25,7.561,7.561,0,0,0-3.925-1.105Z"/><path class="f" d="M117.084,89a1,1,0,0,1-.951-1.31,10.275,10.275,0,0,0-9.766-13.446,1,1,0,0,1,0-2,12.276,12.276,0,0,1,11.669,16.064,1,1,0,0,1-.951.691Z"/><path class="f" d="M88.79,89.657a1,1,0,0,1-.658-.248A4.9,4.9,0,0,0,84.9,88.2a1,1,0,1,1,0-2A6.9,6.9,0,0,1,89.449,87.9a1,1,0,0,1-.659,1.752Z"/><path class="f" d="M99.932,81.05a1,1,0,0,1-.813-.417,7.607,7.607,0,0,0-6.167-3.169,1,1,0,0,1,0-2,9.612,9.612,0,0,1,7.792,4,1,1,0,0,1-.812,1.583Z"/></g><path class="e" d="M93,105V35l-8-8H33v78Z"/><path class="f" d="M93,106H33a1,1,0,0,1-1-1V27a1,1,0,0,1,1-1H85a1,1,0,0,1,.707.293l8,8A1,1,0,0,1,94,35v70A1,1,0,0,1,93,106Zm-59-2H92V35.414L84.586,28H34Z"/><path class="c" d="M93,35H85V27Z"/><path class="f" d="M93,36H85a1,1,0,0,1-1-1V27a1,1,0,0,1,1.707-.707l8,8A1,1,0,0,1,93,36Zm-7-2h4.586L86,29.414Z"/><path class="f" d="M93,36H85a1,1,0,0,1-1-1V27a1,1,0,0,1,1.707-.707l8,8A1,1,0,0,1,93,36Zm-7-2h4.586L86,29.414Z"/><line class="e" x1="26" y2="26" transform="translate(50 54)"/><path class="f" d="M50,81a1,1,0,0,1-.707-1.707l26-26a1,1,0,1,1,1.414,1.414l-26,26A1,1,0,0,1,50,81Z"/><line class="e" x2="26" y2="26" transform="translate(50 54)"/><path class="f" d="M76,81a1,1,0,0,1-.707-.293l-26-26a1,1,0,1,1,1.414-1.414l26,26A1,1,0,0,1,76,81Z"/></g></svg>