<?xml version="1.0" encoding="UTF-8" standalone="no"?>
<!-- Created with Inkscape (http://www.inkscape.org/) -->
<svg
   xmlns:svg="http://www.w3.org/2000/svg"
   xmlns="http://www.w3.org/2000/svg"
   xmlns:xlink="http://www.w3.org/1999/xlink"
   version="1.0"
   width="200"
   height="240"
   id="svg1910">
  <defs
     id="defs1912" />
  <path
     d="M 10,5 L 10,140 C 10,189.68 50.32,230 100,230 C 149.68,230 190,189.68 190,140 L 190,5 L 10,5 z"
     id="path2745"
     style="fill:#387c1e;fill-opacity:1;stroke:#000000;stroke-width:4;stroke-linecap:butt;stroke-linejoin:miter;marker:none;stroke-miterlimit:4;stroke-dasharray:none;stroke-dashoffset:0;stroke-opacity:1;visibility:visible;display:inline;overflow:visible;enable-background:accumulate" />
  <path
     d="M 34,22.72918 L 43.834208,22.72918 C 46.758291,22.729213 49.002663,23.654754 50.567331,25.50581 C 52.131959,27.356926 52.914283,29.994538 52.914305,33.418656 C 52.914283,36.857453 52.131959,39.502383 50.567331,41.353453 C 49.002663,43.204553 46.758291,44.130096 43.834208,44.130084 L 39.925149,44.130084 L 39.925149,55.5 L 34,55.5 L 34,22.72918 z M 39.925149,28.853131 L 39.925149,38.006133 L 43.20322,38.006133 C 44.352324,38.006151 45.239813,37.607399 45.865686,36.809877 C 46.491531,36.012393 46.804461,34.881987 46.804479,33.418656 C 46.804461,31.955371 46.491531,30.828624 45.865686,30.038412 C 45.239813,29.24825 44.352324,28.853157 43.20322,28.853131 L 39.925149,28.853131 z M 67.580971,28.26049 C 65.775199,28.260517 64.374713,29.211669 63.379503,31.113945 C 62.384276,33.016269 61.886668,35.694123 61.886675,39.147515 C 61.886668,42.586305 62.384276,45.256842 63.379503,47.159134 C 64.374713,49.061443 65.775199,50.012593 67.580971,50.012589 C 69.39698,50.012593 70.802594,49.061443 71.797832,47.159134 C 72.793033,45.256842 73.290641,42.586305 73.290661,39.147515 C 73.290641,35.694123 72.793033,33.016269 71.797832,31.113945 C 70.802594,29.211669 69.39698,28.260517 67.580971,28.26049 L 67.580971,28.26049 z M 67.580971,22.13654 C 71.274555,22.136573 74.16787,23.643781 76.260931,26.658166 C 78.353947,29.67261 79.400466,33.835722 79.400489,39.147515 C 79.400466,44.444706 78.353947,48.600502 76.260931,51.614913 C 74.16787,54.629332 71.274555,56.136538 67.580971,56.13654 C 63.897623,56.136538 61.006872,54.629332 58.90871,51.614913 C 56.810536,48.600502 55.761454,44.444706 55.761456,39.147515 C 55.761454,33.835722 56.810536,29.67261 58.90871,26.658166 C 61.006872,23.643781 63.897623,22.136573 67.580971,22.13654 L 67.580971,22.13654 z M 83.86359,22.72918 L 89.788738,22.72918 L 89.788738,49.112653 L 100.19237,49.112653 L 100.19237,55.5 L 83.86359,55.5 L 83.86359,22.72918 z M 103.93214,22.72918 L 109.85729,22.72918 L 109.85729,55.5 L 103.93214,55.5 L 103.93214,22.72918 z M 114.56661,22.72918 L 133.88106,22.72918 L 133.88106,27.843448 L 121.55368,49.112653 L 134.23504,49.112653 L 134.23504,55.5 L 114.21265,55.5 L 114.21265,50.385733 L 126.54005,29.116527 L 114.56661,29.116527 L 114.56661,22.72918 z M 138.52887,22.72918 L 154.51906,22.72918 L 154.51906,29.116527 L 144.454,29.116527 L 144.454,35.218528 L 153.91884,35.218528 L 153.91884,41.605875 L 144.454,41.605875 L 144.454,49.112653 L 154.85764,49.112653 L 154.85764,55.5 L 138.52887,55.5 L 138.52887,22.72918 z M 160.07485,22.72918 L 166,22.72918 L 166,55.5 L 160.07485,55.5 L 160.07485,22.72918 z"
     id="text2750"
     style="font-size:40.10361862px;font-style:normal;font-variant:normal;font-weight:bold;font-stretch:normal;text-indent:0;text-align:start;text-decoration:none;line-height:100%;letter-spacing:normal;word-spacing:normal;text-transform:none;direction:ltr;block-progression:tb;writing-mode:lr-tb;text-anchor:start;fill:#edd400;fill-opacity:1;fill-rule:nonzero;stroke:none;stroke-width:1px;stroke-linecap:butt;stroke-linejoin:miter;marker:none;marker-start:none;marker-mid:none;marker-end:none;stroke-miterlimit:4;stroke-dashoffset:0;stroke-opacity:1;visibility:visible;display:inline;overflow:visible;enable-background:accumulate;font-family:DejaVu Sans;-inkscape-font-specification:DejaVu Sans Bold" />
  <path
     d="M 20,139.96875 C 18.595135,184.37291 61.046239,224.49902 105.5,219.9375 C 143.58304,217.53824 178.35767,184.91954 179.53125,146 C 181.39188,120.29697 179.02718,94.517046 180,68.78125 C 180,50.854167 180,32.927083 180,15 C 126.66667,15 73.333333,15 20,15 C 20,56.65625 20,98.3125 20,139.96875 z"
     id="path3543"
     style="fill:none;fill-opacity:1;stroke:#edd400;stroke-width:6;stroke-linecap:butt;stroke-linejoin:miter;marker:none;stroke-miterlimit:4;stroke-dasharray:none;stroke-dashoffset:0;stroke-opacity:1;visibility:visible;display:inline;overflow:visible;enable-background:accumulate" />
  <g
     transform="matrix(2.1218597e-2,0,0,2.1218597e-2,52.045325,57.611798)"
     id="g2590">
    <g
       id="Krone"
       style="fill:#ffff00;stroke:#000000;stroke-width:20;stroke-linecap:round;stroke-linejoin:round">
      <path
         d="M 550,2370 L 250,985 L 470,930 L 250,985 L 10,300 C 143,340 250,240 314,380 C 321,349 344,357 349,327 C 379,503 558,490 331,824 L 345,830 C 474,606 486,706 571,620 C 582,672 609,691 582,735 C 721,741 764,1084 600,1149 C 614,1204 588,1218 589,1261 C 510,1177 411,1243 333,1146 C 376.75377,1368.8291 610.78492,1512.979 855.72321,1467.9678 C 1100.6615,1422.9566 1263.7538,1205.8291 1220,983 C 1182,1101 1066,1075 1023,1181 C 1008,1141 979,1137 972,1081 C 796,1079 713,744 840,688 C 799,657 818,629 810,577 C 920,627 896,529 1096,692 L 1107,681 C 775,451 947,388 912,224 C 928,250 946,235 963,261 C 955,142 1102,146 1154,77 C 1222,131 1364,92 1384,209 C 1395,179 1416,190 1425,161 C 1433,339 1613,348 1347,652 L 1360,659 C 1515,453 1515,554 1610,479 C 1614,531 1639,553 1607,594 C 1744,617 1745,963 1574,1007 C 1581,1063 1554,1074 1549,1117 C 1481,1024 1375,1078 1310,972 C 1343.4756,1221.4465 1540.9244,1398.8686 1769.4249,1384.8267 C 1997.9255,1370.7848 2185.1243,1169.725 2205,917 C 2153,1030 2041,990 1985,1090 C 1975,1048 1947,1041 1947,984 C 1772,961 1731,618 1864,578 C 1827,542 1849,517 1847,464 C 1950,527 1938,427 2117,613 L 2129,604 C 1828,335 2005,304 1992,126 C 2004,154 2024,141 2038,169 C 2044,50 2190,72 2250,10 C 2310,72 2456,50 2462,169 C 2476,141 2496,154 2508,126 C 2495,304 2672,335 2371,604 L 2383,613 C 2562,427 2550,527 2653,464 C 2651,517 2673,542 2636,578 C 2769,618 2728,961 2553,984 C 2553,1041 2525,1048 2515,1090 C 2459,990 2347,1030 2295,917 C 2314.8757,1169.725 2502.0745,1370.7848 2730.5751,1384.8267 C 2959.0756,1398.8686 3156.5244,1221.4465 3190,972 C 3125,1078 3019,1024 2951,1117 C 2946,1074 2919,1063 2926,1007 C 2755,963 2756,617 2893,594 C 2861,553 2886,531 2890,479 C 2985,554 2985,453 3140,659 L 3153,652 C 2887,348 3067,339 3075,161 C 3084,190 3105,179 3116,209 C 3136,92 3278,131 3346,77 C 3398,146 3545,142 3537,261 C 3554,235 3572,250 3588,224 C 3553,399 3725,451 3393,681 L 3404,692 C 3604,529 3580,627 3690,577 C 3682,629 3701,657 3660,688 C 3787,744 3704,1079 3528,1081 C 3521,1137 3492,1141 3477,1181 C 3434,1075 3318,1101 3280,983 C 3236.2462,1205.8291 3399.3385,1422.9566 3644.2768,1467.9678 C 3889.2151,1512.979 4123.2462,1368.8291 4167,1146 C 4089,1243 3990,1177 3911,1261 C 3912,1218 3886,1204 3900,1149 C 3736,1084 3779,741 3918,735 C 3891,691 3918,672 3929,620 C 4014,706 4026,606 4155,830 L 4169,824 C 3942,490 4121,503 4151,327 C 4126,357 4179,349 4186,380 C 4250,240 4357,340 4490,300 L 4250,985 L 4030,930 L 4250,985 L 3950,2370 L 550,2370 z"
         id="path2522" />
      <g
         id="Perle+Kreuz">
        <path
           d="M 2020,740 L 2480,740 M 2250,500 L 2250,700"
           id="path2525" />
        <circle
           cx="2250"
           cy="720"
           r="85"
           id="Perle" />
      </g>
      <use
         transform="matrix(0.9925462,0.1218693,-0.1218693,0.9925462,1113.5952,-207.12139)"
         id="use2528"
         x="0"
         y="0"
         width="200"
         height="240"
         xlink:href="#Perle+Kreuz" />
      <use
         transform="matrix(0.9925462,-0.1218693,0.1218693,0.9925462,-1080.0529,341.29066)"
         id="use2530"
         x="0"
         y="0"
         width="200"
         height="240"
         xlink:href="#Perle+Kreuz" />
      <use
         transform="matrix(0.9702957,0.2419219,-0.2419219,0.9702957,2244.1317,-276.9858)"
         id="use2532"
         x="0"
         y="0"
         width="200"
         height="240"
         xlink:href="#Perle" />
      <use
         transform="matrix(0.9702957,-0.2419219,0.2419219,0.9702957,-2110.4624,811.66273)"
         id="use2534"
         x="0"
         y="0"
         width="200"
         height="240"
         xlink:href="#Perle" />
      <path
         d="M 404,1695 C 1621.4433,1439.8643 2878.5567,1439.8643 4096,1695 C 4136,1705 4116,1808 4076,1798 C 2871.4589,1548.4212 1628.5411,1548.4212 424,1798 C 384,1808 364,1705 404,1695"
         id="path2536" />
      <path
         d="M 522,2242 C 1663.1829,2018.7391 2836.8171,2018.7391 3978,2242 C 4018,2252 3995,2360 3955,2350 C 2828.7191,2132.6973 1671.2809,2132.6973 545,2350 C 505,2360 482,2252 522,2242"
         id="path2538" />
      <g
         id="g2540"
         style="fill:none">
        <path
           d="M 314,1280 C 450,1767 1231,1730 1287,1150 C 1420,1657 2070,1639 2250,1100 C 2430,1639 3080,1657 3213,1150 C 3269,1730 4050,1767 4186,1280"
           id="path2542" />
        <path
           d="M 473,2020 C 1645.8901,1783.7689 2854.1099,1783.7689 4027,2020"
           id="path2544" />
        <path
           d="M 555,2355 C 1674.7981,2140.262 2825.2019,2140.262 3945,2355"
           id="path2546"
           style="stroke-width:35" />
      </g>
      <path
         d="M 793,1962 L 838,2185 M 1053,1691 L 1090,1917 M 1376,1886 L 1404,2114 M 1644,1632 L 1662,1861"
         id="Fugen" />
      <use
         transform="matrix(-1,0,0,1,4500,0)"
         id="use2549"
         x="0"
         y="0"
         width="200"
         height="240"
         xlink:href="#Fugen" />
      <path
         d="M 1910,2194 C 2136.5857,2185.434 2363.4143,2185.434 2590,2194 L 2590,1760 C 2590,1572.2232 2437.7768,1420 2250,1420 C 2062.2232,1420 1910,1572.2232 1910,1760 L 1910,2194 z"
         id="path2551" />
      <path
         d="M 2020,2190 L 2020,1760 C 2020,1632.9745 2122.9745,1530 2250,1530 C 2377.0255,1530 2480,1632.9745 2480,1760 L 2480,2190"
         id="path2553"
         style="fill:none" />
      <path
         d="M 2250,1533 L 2250,2185"
         id="path2555"
         style="stroke-width:25" />
      <path
         d="M 2150,1370 L 2350,1370 L 2320,1550 L 2180,1550 L 2150,1370 z"
         id="path2557" />
    </g>
    <svg
       version="1.0"
       x="366"
       y="2360"
       width="3768"
       height="5021"
       viewBox="0 0 376 501"
       id="Schild">
      <path
         d="M 3,3 L 373,3 L 373,313 C 373,354 374,393 318,425 L 188,498 L 58,425 C 3,393 3,354 3,313 L 3,3 z"
         id="path2560"
         style="fill:#ffffff;stroke:#000000;stroke-width:6" />
      <svg
         version="1.0"
         x="44"
         y="23"
         width="250"
         height="414"
         viewBox="0 0 2500 4140"
         id="Baer">
        <path
           d="M 1522,109 L 1278,118 C 1266,119 1257,125 1257,139 C 1258,227 1275,284 1338,330 C 1330,379 1335,404 1386,445 C 1391,405 1407,387 1432,370 C 1434,371 1436,371 1437,372 C 1434,390 1434,409 1438,420 C 1448,448 1497,449 1510,429 C 1522,458 1547,459 1567,459 C 1588,459 1598,444 1605,430 C 1617,440 1629,451 1640,465 C 1675,513 1681,575 1681,634 C 1670,635 1659,636 1648,637 L 1648,613 C 1647,579 1568,573 1550,602 C 1530,580 1468,584 1468,619 L 1468,630 C 1454,612 1443,593 1434,574 C 1409,590 1394,602 1398,659 C 1387,660 1376,661 1366,662 C 1367,728 1396,746 1632,741 C 1638,807 1572,844 1523,875 C 1395,948 1260,1028 1187,1162 C 1126,1268 1111,1394 1118,1516 L 1188,1485 L 1196,1523 C 1070,1583 840,1705 689,1775 C 652,1792 556,1816 536,1782 C 467,1663 412,1573 332,1482 C 189,1545 123,1603 69,1736 C 182,1909 369,2157 679,2159 C 1000,2161 1279,2043 1340,2025 L 1353,2066 C 1312,2084 1276,2097 1233,2111 C 1289,2331 1354,2417 1505,2551 L 1474,2574 C 1447,2558 1401,2507 1376,2483 C 1055,2635 935,2787 858,2944 C 773,3133 789,3348 825,3547 C 832,3580 796,3596 769,3586 C 695,3569 654,3495 583,3468 C 551,3454 512,3441 477,3446 C 395,3563 405,3622 416,3769 C 524,3822 640,3835 760,3897 C 839,3929 915,3981 1005,3967 C 1056,3962 1107,3927 1112,3873 C 1157,3679 1220,3473 1368,3333 C 1439,3263 1531,3207 1622,3164 C 1586,3026 1559,2888 1562,2744 L 1606,2742 C 1638,3290 1784,3405 2041,3660 C 2067,3686 2065,3735 2027,3750 C 1977,3775 1918,3777 1861,3779 C 1851,3921 1884,4060 1936,4117 C 2094,4114 2258,3989 2353,3868 C 2393,3818 2441,3768 2479,3719 C 2526,3658 2475,3587 2461,3531 C 2422,3371 2404,2911 2402,2847 L 2458,2848 L 2466,2732 C 2299,2525 2326,2201 2257,1992 C 2230,1907 2200,1819 2200,1729 C 2200,1607 2338,1378 2335,1174 C 2334,1088 2286,976 2287,925 C 2288,777 2373,809 2371,501 C 2370,416 2360,353 2338,266 C 2487,109 2282,-48 2164,50 C 2069,25 2057,0 1871,0 C 1712,0 1621,43 1522,109 z M 1234,1026 C 942,940 735,901 619,813 C 502,724 550,533 413,424 C 286,420 210,477 156,548 C 375,885 83,967 1074,1533 C 1070,1220 1129,1155 1234,1026 z M 1839,299 C 1824,299 1797,291 1789,280 C 1702,147 1680,195 1667,241 C 1656,282 1608,283 1622,228 C 1657,93 1752,112 1870,299 L 1839,299 z M 2116,164 C 2140,132 2177,101 2217,88 C 2276,68 2300,116 2253,132 C 2214,146 2181,173 2153,201 L 2116,164 z M 1349,337 C 1364,346 1385,357 1416,366 C 1399,380 1383,400 1378,422 C 1351,403 1340,368 1349,337 z M 1509,390 C 1509,403 1506,416 1502,422 C 1492,438 1455,437 1447,415 C 1444,406 1444,390 1448,375 C 1468,380 1489,384 1509,390 z M 1521,393 C 1548,401 1574,410 1597,425 C 1592,437 1583,449 1565,449 C 1549,449 1531,448 1521,429 C 1516,419 1518,405 1521,393 z M 1467,653 L 1408,658 C 1405,630 1408,606 1430,590 C 1441,610 1453,629 1467,646 L 1467,653 z M 1477,652.5 L 1477,621 C 1477,588 1547,590 1548,621 L 1548,646 L 1477,652.5 z M 1557,645 L 1557,617 C 1557,584 1638,586 1638,616 L 1638,638 L 1557,645 z"
           id="Koerper" />
        <g
           id="rote_Elemente"
           style="fill:#ff0000">
          <path
             d="M 1178,378 C 1179,634 1557,508 1677,569 C 1675,553 1672,537 1667,521 C 1606,499 1519,514 1426,499 C 1239,469 1216,416 1216,377 C 1215,336 1178,334 1178,378"
             id="Zunge" />
          <g
             id="Krallen">
            <path
               d="M 329,3474 C 329,3474 364,3461 439,3500 C 475,3518 497,3449 467,3440 C 375,3411 329,3474 329,3474"
               id="Kralle" />
            <use
               transform="translate(-25,63)"
               id="use2568"
               x="0"
               y="0"
               width="2500"
               height="4140"
               xlink:href="#Kralle" />
            <use
               transform="translate(-44,128)"
               id="use2570"
               x="0"
               y="0"
               width="2500"
               height="4140"
               xlink:href="#Kralle" />
            <use
               transform="translate(-46,197)"
               id="use2572"
               x="0"
               y="0"
               width="2500"
               height="4140"
               xlink:href="#Kralle" />
            <use
               transform="translate(-37,267)"
               id="use2574"
               x="0"
               y="0"
               width="2500"
               height="4140"
               xlink:href="#Kralle" />
          </g>
          <use
             transform="matrix(0.98585,-0.362747,0.362747,0.98585,152.8742,556.3228)"
             id="use2576"
             x="0"
             y="0"
             width="2500"
             height="4140"
             xlink:href="#Krallen" />
          <use
             transform="matrix(0.662705,0.948407,-0.717713,0.895796,2492.198,-2039.701)"
             id="use2578"
             x="0"
             y="0"
             width="2500"
             height="4140"
             xlink:href="#Krallen" />
          <use
             transform="matrix(0.500922,0.739494,-0.739494,0.500922,2724.41,-1655.876)"
             id="use2580"
             x="0"
             y="0"
             width="2500"
             height="4140"
             xlink:href="#Krallen" />
        </g>
      </svg>
    </svg>
  </g>
</svg>
